# xmcd CD database file
#
# Track frame offsets:
#	150
#	30685
#	55435
#	78535
#	100435
#	124660
#	144985
#	182560
#	201460
#	230336
#
# Disc length: 3327 seconds
#
# Revision: 1
# Processed by: cddbd v1.5.2PL0 Copyright (c) Steve Scherf et al.
# Submitted via: CDex 1.51
#
DISCID=8b0cfd0a
DTITLE=Jimmy Cobb Roy Hargrove - Jazz in the Key of Blue
DYEAR=2009
DGENRE=Jazz
TTITLE0=Every Time We Say Goodbye
TTITLE1=With You I'm Born Again
TTITLE2=I'll Still Be In Love With You
TTITLE3=Emily
TTITLE4=Stairway to the Stars
TTITLE5=I Had the Craziest Dream
TTITLE6=Remembering U
TTITLE7=What Will I Do
TTITLE8=If Ever I Would Leave You
TTITLE9=We'll Be Together Again
EXTD=YEAR: 2009
EXTT0=
EXTT1=
EXTT2=
EXTT3=
EXTT4=
EXTT5=
EXTT6=
EXTT7=
EXTT8=
EXTT9=
PLAYORDER=
